# xmcd CD database file
#
# Track frame offsets:
#	150
#	19132
#	45320
#	69319
#	96750
#	117433
#	129733
#	149010
#	170629
#	182277
#	219202
#
# Disc length: 3262 seconds
#
# Revision: 1
# Processed by: cddbd v1.5.2PL0 Copyright (c) Steve Scherf et al.
# Submitted via: CDex 1.51
#
DISCID=970cbc0b
DTITLE=Various Artist - The Blues in... Singapore
DYEAR=2002
DGENRE=Blues
TTITLE0=Al and The Coholics - Up The Line
TTITLE1=The Curtis King Band - Caldonia
TTITLE2=The New Vintage Blues Band - Walkin' Blues
TTITLE3=Jeanne French - Mean Man Blues
TTITLE4=O' Donel "OD" Levy - Southside of the Blues
TTITLE5=John Chee - Crusing
TTITLE6=Al and The Coholics - Hoochie Coochie Man
TTITLE7=The Curtis King Band - Messin' With The Kid
TTITLE8=The New Vintage Blues Band - Sweet Home Chicago
TTITLE9=Jeanne French - Baby What You Want Me To Do
TTITLE10=O' Donel "OD" Levy - New Love
EXTD=YEAR: 2002
EXTT0=
EXTT1=
EXTT2=
EXTT3=
EXTT4=
EXTT5=
EXTT6=
EXTT7=
EXTT8=
EXTT9=
EXTT10=
PLAYORDER=
